<svg xmlns="http://www.w3.org/2000/svg" xmlns:xlink="http://www.w3.org/1999/xlink" width="1265.9" height="258.4"><defs><linearGradient id="a" x1="0" x2="277.4" y1="60.3" y2="60.3" gradientUnits="userSpaceOnUse"><stop offset=".1" stop-color="#9b6af4"/><stop offset="1" stop-color="#75edb9"/></linearGradient><linearGradient xlink:href="#a" id="c" y1="-7521.5" y2="-7521.5" gradientTransform="matrix(1 0 0 -1 0 -7323.4)"/><linearGradient xlink:href="#a" id="b" x1="0" x2="277.4" y1="60.3" y2="60.3" gradientUnits="userSpaceOnUse"/></defs><path d="M220.4 120.7H57c-11.6 0-22-7-26.6-17.6L2.1 36.2A26 26 0 0 1 26 0h225.2a26 26 0 0 1 24 36.2L247 103a28.9 28.9 0 0 1-26.6 17.7z" style="fill:url(#b);stroke-width:0"/><path d="M220.4 137.7H57c-11.6 0-22 7-26.6 17.7L2.1 222.2a26 26 0 0 0 24 36.2h225.2a26 26 0 0 0 24-36.2L247 155.4a28.9 28.9 0 0 0-26.6-17.7z" style="fill:url(#c);stroke-width:0"/><g aria-label="ContentLens" style="font-weight:600;font-size:144.09px;font-family:Poppins-SemiBold,Poppins"><path d="M414.6 94q-12.5 0-19.2 9.4-6.6 9.4-6.6 25.7 0 16.4 6 25.5 6.2 9 19.8 9 6.3 0 12.5-1.5 6.4-1.5 13.7-4v18.2q-6.8 2.8-13.4 4-6.6 1.4-14.8 1.4-15.9 0-26.3-6.5-10.2-6.7-15-18.5-5-12-5-27.8 0-15.5 5.6-27.5 5.7-12 16.3-18.7 10.8-6.8 26.4-6.8 7.6 0 15.3 2 7.7 1.9 14.8 5.2l-7 17.7q-5.8-2.7-11.7-4.7-5.8-2-11.4-2zM532.5 140.7q0 19.6-10.4 30.3-10.2 10.7-28 10.7-11 0-19.6-4.8-8.5-4.7-13.4-13.8-4.9-9.2-4.9-22.4 0-19.6 10.3-30 10.2-10.6 28-10.6 11.2 0 19.7 4.8 8.5 4.7 13.4 13.8 4.9 9 4.9 22zm-54.4 0q0 11.7 3.8 17.8 3.9 5.9 12.5 5.9 8.5 0 12.3-6 3.9-6 3.9-17.7 0-11.6-4-17.4-3.7-5.9-12.3-5.9-8.5 0-12.4 5.9-3.8 5.8-3.8 17.4zM594.8 100.1q12.7 0 20.4 7 7.6 6.7 7.6 21.8v51.3h-21.5v-46q0-8.4-3-12.6-3-4.3-9.7-4.3-9.7 0-13.4 6.7-3.6 6.7-3.6 19.2v37h-21.4v-78.7h16.4l2.9 10.1h1.1q3.8-6 10.3-8.8 6.6-2.7 14-2.7zM678 164.5q3.6 0 6.9-.7 3.3-.7 6.6-1.7v16q-3.4 1.4-8.6 2.4-5 1.2-11.1 1.2-7 0-12.7-2.3-5.5-2.3-8.8-8-3.1-5.7-3.1-15.8v-38h-10.3v-9l11.8-7.2 6.2-16.6h13.7v16.7h22v16.2h-22v37.9q0 4.4 2.6 6.8 2.6 2.1 6.8 2.1zM739.8 100.1q16.3 0 25.8 9.4 9.5 9.2 9.5 26.3v10.4h-50.7q.3 9 5.3 14.3 5.2 5.2 14.3 5.2 7.6 0 13.8-1.5 6.2-1.6 12.8-4.7V176q-5.7 3-12.2 4.2-6.4 1.5-15.4 1.5-11.8 0-21-4.4-9-4.4-14.2-13.4-5.2-8.9-5.2-22.4 0-13.9 4.6-23 4.8-9.2 13.1-13.8 8.4-4.6 19.5-4.6zm.1 15.3q-6.2 0-10.3 4-4 4-4.8 12.5H755q-.1-7.2-3.7-11.8-3.6-4.7-11.3-4.7zM837.2 100.1q12.7 0 20.3 7 7.7 6.7 7.7 21.8v51.3h-21.5v-46q0-8.4-3-12.6-3-4.3-9.7-4.3-9.8 0-13.4 6.7-3.6 6.7-3.6 19.2v37h-21.5v-78.7H809l2.8 10.1h1.2q3.7-6 10.2-8.8 6.7-2.7 14-2.7zM920.3 164.5q3.6 0 7-.7 3.3-.7 6.6-1.7v16q-3.5 1.4-8.7 2.4-5 1.2-11 1.2-7.1 0-12.7-2.3-5.5-2.3-8.8-8-3.2-5.7-3.2-15.8v-38h-10.2v-9l11.8-7.2 6.2-16.6H911v16.7h22v16.2h-22v37.9q0 4.4 2.6 6.8 2.6 2.1 6.7 2.1zM951.5 180.2V77.3h21.7v85h41.8v18ZM1063.6 100.1q16.3 0 25.8 9.4 9.5 9.2 9.5 26.3v10.4h-50.7q.2 9 5.3 14.3 5.2 5.2 14.2 5.2 7.7 0 13.9-1.5 6.2-1.6 12.8-4.7V176q-5.8 3-12.2 4.2-6.4 1.5-15.5 1.5-11.8 0-20.9-4.4-9-4.4-14.2-13.4-5.2-8.9-5.2-22.4 0-13.9 4.6-23 4.8-9.2 13.1-13.8 8.4-4.6 19.5-4.6zm.1 15.3q-6.2 0-10.4 4-4 4-4.7 12.5h30.1q-.1-7.2-3.7-11.8-3.6-4.7-11.3-4.7zM1161 100.1q12.7 0 20.3 7 7.6 6.7 7.6 21.8v51.3h-21.4v-46q0-8.4-3-12.6-3-4.3-9.7-4.3-9.8 0-13.4 6.7-3.6 6.7-3.6 19.2v37h-21.5v-78.7h16.4l3 10.1h1q3.8-6 10.3-8.8 6.6-2.7 14-2.7zM1265.9 156.9q0 12-8.5 18.4-8.4 6.4-25.1 6.4-8.2 0-14.1-1.2-6-1-11.8-3.4v-17.8q6.3 3 13.7 4.8 7.3 1.9 13 1.9 6.3 0 8.9-2 2.7-1.8 2.7-4.8 0-2-1.2-3.6-1-1.6-4.6-3.6-3.6-2-11.2-5.2-7.4-3.2-12.1-6.2-4.8-3.2-7-7.5-2.4-4.5-2.4-11 0-11 8.5-16.5t22.6-5.5q7.4 0 14 1.4 6.6 1.5 13.7 4.8l-6.5 15.4q-5.7-2.4-11-4-5.1-1.7-10.4-1.7-9.6 0-9.6 5.1 0 2 1.2 3.5 1.3 1.4 4.8 3.2 3.6 1.7 10.5 4.6 6.7 2.7 11.6 5.7 5 3 7.5 7.4 2.8 4.3 2.8 11.4z"/></g></svg>
